<?xml version="1.0" encoding="UTF-8" standalone="no"?>
<svg
   width="265"
   height="265"
   version="1.1"
   id="svg656"
   sodipodi:docname="mandatory_dogs.svg"
   inkscape:version="1.2.2 (b0a8486541, 2022-12-01)"
   xmlns:inkscape="http://www.inkscape.org/namespaces/inkscape"
   xmlns:sodipodi="http://sodipodi.sourceforge.net/DTD/sodipodi-0.dtd"
   xmlns="http://www.w3.org/2000/svg"
   xmlns:svg="http://www.w3.org/2000/svg">
  <defs
     id="defs660" />
  <sodipodi:namedview
     id="namedview658"
     pagecolor="#ffffff"
     bordercolor="#666666"
     borderopacity="1.0"
     inkscape:showpageshadow="2"
     inkscape:pageopacity="0.0"
     inkscape:pagecheckerboard="0"
     inkscape:deskcolor="#d1d1d1"
     showgrid="false"
     inkscape:zoom="0.89056604"
     inkscape:cx="64.004237"
     inkscape:cy="133.06144"
     inkscape:window-width="1280"
     inkscape:window-height="982"
     inkscape:window-x="0"
     inkscape:window-y="0"
     inkscape:window-maximized="1"
     inkscape:current-layer="svg656" />
  <path
     d="M0 132.5C0 59.325 59.319 0 132.496 0 205.681 0 265 59.324 265 132.5c0 73.183-59.319 132.5-132.504 132.5C59.319 265.001 0 205.683 0 132.5"
     fill="#24578e"
     id="path652" />
  <path
     d="m 147.24415,100.57068 28.182,27.663 7.595,-13.499 h 18.354 c 3.484,-0.024 4.118,-0.473 5.63,-3.201 l 3.019,-5.447 c 0.835,-1.508 0.096,-2.259 -1.179,-3.105 l -12.364,-8.198004 -0.101,-4.873 c -0.039,-1.869 -0.295,-3.456 -2.362,-4.625 l -10.851,-5.866003 v -11.706 c 0,-1.061 -0.814,-1.538 -1.549,-0.818 z m -73.331997,7.188 -11.887,-20.440004 c -1.306,-2.245 -4.733,-1.705 -4.654,1.123 v 26.915004 c 0.176,1.35 1.959,3.765 2.773,5.018 0.542,0.836 0.887,2.692 0.881,4.846 l -0.086,32.862 -6.318,17.073 v 14.108 c 0,12.145 17.406,12.473 17.406,-0.384 v -11.187 l 18.043,-28.561 50.601997,11.259 v 29.564 c 0,11.268 15.951,11.381 15.951,0 v -30.404 l 13.215,-21.366 -31.272,-30.47 z"
     id="path1369"
     style="fill:#ffffff;fill-opacity:1" />
</svg>
